<svg width="20" height="20" viewBox="0 0 20 20" fill="none" xmlns="http://www.w3.org/2000/svg">
<g opacity="0.5">
<path d="M3.38425 16.847L3.82509 16.2402L3.82509 16.2402L3.38425 16.847ZM2.46245 15.9252L1.85569 16.366H1.85569L2.46245 15.9252ZM14.9491 16.847L14.5083 16.2402V16.2402L14.9491 16.847ZM15.8709 15.9252L15.2642 15.4844L15.2642 15.4844L15.8709 15.9252ZM2.46245 4.36033L1.85569 3.91949H1.85569L2.46245 4.36033ZM3.38425 3.43853L3.82509 4.04529L3.38425 3.43853ZM7.50901 3.39872C7.92319 3.39375 8.25493 3.05396 8.24997 2.63978C8.245 2.2256 7.90521 1.89386 7.49103 1.89882L7.50901 3.39872ZM17.4106 11.8184C17.4156 11.4042 17.0839 11.0645 16.6697 11.0595C16.2555 11.0545 15.9157 11.3863 15.9107 11.8004L17.4106 11.8184ZM9.83132 13.4798L9.7485 12.7344L9.83132 13.4798ZM6.39816 13.2319L5.86783 13.7622H5.86783L6.39816 13.2319ZM6.15027 9.79876L6.89568 9.88158L6.15027 9.79876ZM7.10619 7.80984L6.57586 7.27951L7.10619 7.80984ZM6.36913 8.67977L5.69315 8.35488L5.69315 8.35488L6.36913 8.67977ZM11.8202 12.5239L12.3506 13.0542L11.8202 12.5239ZM10.9503 13.2609L11.2752 13.9369L10.9503 13.2609ZM9.16669 16.8928C7.58759 16.8928 6.46352 16.8917 5.59519 16.7977C4.7409 16.7051 4.22356 16.5297 3.82509 16.2402L2.94341 17.4538C3.64021 17.96 4.4517 18.1825 5.43362 18.2889C6.4015 18.3938 7.62101 18.3928 9.16669 18.3928V16.8928ZM0.916687 10.1428C0.916687 11.6884 0.915658 12.908 1.02052 13.8758C1.1269 14.8577 1.34943 15.6692 1.85569 16.366L3.06921 15.4844C2.7797 15.0859 2.60435 14.5686 2.51179 13.7143C2.41772 12.8459 2.41669 11.7219 2.41669 10.1428H0.916687ZM3.82509 16.2402C3.53503 16.0295 3.27995 15.7744 3.06921 15.4844L1.85569 16.366C2.15894 16.7834 2.52601 17.1505 2.94341 17.4538L3.82509 16.2402ZM9.16669 18.3928C10.7124 18.3928 11.9319 18.3938 12.8998 18.2889C13.8817 18.1825 14.6932 17.96 15.39 17.4538L14.5083 16.2402C14.1098 16.5297 13.5925 16.7051 12.7382 16.7977C11.8699 16.8917 10.7458 16.8928 9.16669 16.8928V18.3928ZM15.2642 15.4844C15.0534 15.7744 14.7983 16.0295 14.5083 16.2402L15.39 17.4538C15.8074 17.1505 16.1744 16.7834 16.4777 16.366L15.2642 15.4844ZM2.41669 10.1428C2.41669 8.56367 2.41772 7.43959 2.51179 6.57127C2.60435 5.71698 2.7797 5.19964 3.06921 4.80116L1.85569 3.91949C1.34943 4.61628 1.1269 5.42778 1.02052 6.4097C0.915658 7.37758 0.916687 8.59708 0.916687 10.1428H2.41669ZM2.94341 2.83176C2.52601 3.13502 2.15894 3.50209 1.85569 3.91949L3.06921 4.80116C3.27995 4.51111 3.53503 4.25603 3.82509 4.04529L2.94341 2.83176ZM7.49103 1.89882C5.47512 1.92299 4.04602 2.03067 2.94341 2.83176L3.82509 4.04529C4.48335 3.56703 5.41882 3.42377 7.50901 3.39872L7.49103 1.89882ZM15.9107 11.8004C15.8857 13.8906 15.7424 14.8261 15.2642 15.4844L16.4777 16.366C17.2788 15.2634 17.3865 13.8343 17.4106 11.8184L15.9107 11.8004ZM15.7664 7.51705L11.2899 11.9936L12.3506 13.0542L16.8271 8.57771L15.7664 7.51705ZM7.63652 8.34017L12.113 3.86367L11.0524 2.80301L6.57586 7.27951L7.63652 8.34017ZM9.7485 12.7344C8.76963 12.8432 8.11665 12.9139 7.63467 12.8983C7.17282 12.8834 7.01816 12.7913 6.92849 12.7016L5.86783 13.7622C6.34459 14.239 6.95093 14.377 7.58626 14.3975C8.20147 14.4174 8.98186 14.3288 9.91414 14.2252L9.7485 12.7344ZM5.40485 9.71593C5.30127 10.6482 5.2127 11.4286 5.23257 12.0438C5.25308 12.6791 5.39108 13.2855 5.86783 13.7622L6.92849 12.7016C6.83882 12.6119 6.7467 12.4573 6.73179 11.9954C6.71622 11.5134 6.78692 10.8604 6.89568 9.88158L5.40485 9.71593ZM6.57586 7.27951C6.20262 7.65275 5.88422 7.95734 5.69315 8.35488L7.04511 9.00466C7.09995 8.89055 7.19096 8.78573 7.63652 8.34017L6.57586 7.27951ZM6.89568 9.88158C6.96527 9.25532 6.99026 9.11878 7.04511 9.00466L5.69315 8.35488C5.50209 8.75241 5.46315 9.19132 5.40485 9.71593L6.89568 9.88158ZM11.2899 11.9936C10.8443 12.4391 10.7395 12.5301 10.6254 12.585L11.2752 13.9369C11.6727 13.7459 11.9773 13.4275 12.3506 13.0542L11.2899 11.9936ZM9.91414 14.2252C10.4388 14.1669 10.8777 14.128 11.2752 13.9369L10.6254 12.585C10.5113 12.6398 10.3748 12.6648 9.7485 12.7344L9.91414 14.2252ZM15.7664 3.86367C16.337 4.43422 16.7104 4.8099 16.9505 5.12457C17.1773 5.42193 17.2134 5.5751 17.2134 5.69036H18.7134C18.7134 5.11527 18.4717 4.64548 18.143 4.2147C17.8275 3.80122 17.3676 3.34357 16.8271 2.80301L15.7664 3.86367ZM16.8271 8.57771C17.3676 8.03715 17.8275 7.5795 18.143 7.16602C18.4717 6.73524 18.7134 6.26546 18.7134 5.69036H17.2134C17.2134 5.80562 17.1773 5.9588 16.9505 6.25615C16.7104 6.57082 16.337 6.9465 15.7664 7.51705L16.8271 8.57771ZM16.8271 2.80301C16.2865 2.26244 15.8289 1.80255 15.4154 1.48707C14.9846 1.15839 14.5148 0.916672 13.9397 0.916672V2.41667C14.055 2.41667 14.2081 2.45273 14.5055 2.6796C14.8202 2.91969 15.1959 3.29312 15.7664 3.86367L16.8271 2.80301ZM12.113 3.86367C12.6836 3.29312 13.0593 2.91969 13.3739 2.6796C13.6713 2.45273 13.8245 2.41667 13.9397 2.41667V0.916672C13.3646 0.916672 12.8948 1.15839 12.4641 1.48707C12.0506 1.80255 11.5929 2.26244 11.0524 2.80301L12.113 3.86367ZM16.8271 7.51705L12.113 2.80301L11.0524 3.86367L15.7664 8.57771L16.8271 7.51705Z" fill="#2D264B"/>
</g>
</svg>
