<svg width="18" height="19" viewBox="0 0 18 19" fill="none" xmlns="http://www.w3.org/2000/svg">
<path opacity="0.5" d="M17.0723 8.91922L9.48641 16.5052C8.55707 17.4345 7.29662 17.9566 5.98235 17.9566C4.66807 17.9566 3.40762 17.4345 2.47828 16.5052C1.54895 15.5758 1.02686 14.3154 1.02686 13.0011C1.02686 11.6868 1.54895 10.4264 2.47828 9.49704L10.0642 1.9111C10.6838 1.29154 11.5241 0.943481 12.4003 0.943481C13.2765 0.943481 14.1168 1.29154 14.7363 1.9111C15.3559 2.53066 15.7039 3.37096 15.7039 4.24714C15.7039 5.12333 15.3559 5.96363 14.7363 6.58318L7.14211 14.1691C6.83233 14.4789 6.41218 14.6529 5.97409 14.6529C5.536 14.6529 5.11585 14.4789 4.80607 14.1691C4.49629 13.8593 4.32226 13.4392 4.32226 13.0011C4.32226 12.563 4.49629 12.1429 4.80607 11.8331L11.8142 4.83321" stroke="black" stroke-linecap="round" stroke-linejoin="round"/>
</svg>
